<svg width="77" height="29" viewBox="0 0 77 29" fill="none" xmlns="http://www.w3.org/2000/svg">
<path d="M17.429 7.05776L22.8242 4.51145L21.2321 10.2104L21.0947 10.7022L21.5893 10.8292L26.1554 12.0015L26.2797 12.0334L26.404 12.0015L30.9701 10.8292L31.4647 10.7022L31.3273 10.2104L29.7352 4.51145L35.1304 7.05776L35.5868 7.27317L35.798 6.81476L38.2797 1.42661L40.7615 6.81476L40.9726 7.27317L41.429 7.05776L46.8242 4.51145L45.2321 10.2104L45.0947 10.7022L45.5893 10.8292L50.1554 12.0015L50.2797 12.0334L50.404 12.0015L54.9701 10.8292L55.4647 10.7022L55.3273 10.2104L53.7352 4.51145L59.1304 7.05776L59.5868 7.27317L59.798 6.81476L62.2797 1.42661L64.7615 6.81476L64.9726 7.27317L65.429 7.05776L70.8242 4.51145L69.2321 10.2104L69.0947 10.7022L69.5893 10.8292L75.3645 12.312L70.4517 15.6608L70.028 15.9496L70.3274 16.3659L73.7884 21.1783L67.8446 20.6142L67.3394 20.5663L67.299 21.0721L66.8273 26.9722L62.6345 22.7494L62.2797 22.392L61.9249 22.7494L57.7321 26.9722L57.2604 21.0721L57.22 20.5663L56.7148 20.6142L50.771 21.1783L54.232 16.3659L54.5314 15.9496L54.1077 15.6608L50.5613 13.2434L50.2797 13.0514L49.9981 13.2434L46.4517 15.6608L46.028 15.9496L46.3274 16.3659L49.7884 21.1783L43.8446 20.6142L43.3394 20.5663L43.299 21.0721L42.8273 26.9722L38.6345 22.7494L38.2797 22.392L37.9249 22.7494L33.7321 26.9722L33.2604 21.0721L33.22 20.5663L32.7148 20.6142L26.771 21.1783L30.232 16.3659L30.5314 15.9496L30.1078 15.6608L26.5613 13.2434L26.2797 13.0514L25.9981 13.2434L22.4517 15.6608L22.028 15.9496L22.3274 16.3659L25.7884 21.1783L19.8446 20.6142L19.3394 20.5663L19.299 21.0721L18.8273 26.9722L14.6345 22.7494L14.2797 22.392L13.9249 22.7494L9.73213 26.9722L9.26043 21.0721L9.21999 20.5663L8.71479 20.6142L2.77101 21.1783L6.23204 16.3659L6.53142 15.9496L6.10774 15.6608L1.19493 12.312L6.97009 10.8292L7.46471 10.7022L7.32731 10.2104L5.7352 4.51145L11.1304 7.05776L11.5868 7.27317L11.798 6.81476L14.2797 1.42661L16.7615 6.81476L16.9726 7.27317L17.429 7.05776Z" stroke="white"/>
</svg>
